<?xml version="1.0" standalone="no"?>
<!DOCTYPE svg PUBLIC "-//W3C//DTD SVG 20010904//EN"
 "http://www.w3.org/TR/2001/REC-SVG-20010904/DTD/svg10.dtd">
<svg version="1.0" xmlns="http://www.w3.org/2000/svg"
 width="2680.000000pt" height="2024.000000pt" viewBox="0 0 2680.000000 2024.000000"
 preserveAspectRatio="xMidYMid meet">

<g transform="translate(0.000000,2024.000000) scale(0.100000,-0.100000)"
fill="#000000" stroke="none">
<path d="M10625 18354 c-148 -15 -288 -51 -355 -92 -85 -52 -140 -146 -140
-236 0 -373 775 -1016 2042 -1695 449 -240 836 -424 1393 -663 586 -251 868
-359 1405 -539 839 -280 1503 -436 2082 -490 189 -17 509 -7 616 20 338 85
400 312 170 623 -287 387 -1045 925 -2019 1432 -187 97 -214 103 -260 57 -23
-24 -29 -38 -29 -73 0 -56 15 -71 135 -134 135 -71 421 -244 590 -357 540
-361 835 -675 786 -838 -87 -290 -1174 -141 -2524 348 -494 178 -1115 439
-1442 606 l-70 36 71 -6 c235 -19 487 117 630 338 213 329 183 761 -71 1011
-66 65 -159 122 -245 150 -51 17 -92 22 -195 23 -129 2 -132 2 -305 58 -615
198 -1267 350 -1730 402 -134 15 -458 27 -535 19z m560 -104 c504 -62 1057
-194 1768 -421 130 -42 187 -64 187 -74 0 -23 -23 -19 -227 39 -825 237 -1450
303 -1710 180 -88 -42 -143 -121 -143 -207 0 -48 40 -149 88 -222 61 -93 267
-297 420 -415 990 -763 2966 -1630 4344 -1905 501 -99 841 -111 1042 -35 85
32 150 99 165 168 25 121 -39 250 -218 436 -248 255 -657 543 -1216 853 -63
35 -96 73 -64 73 30 0 542 -278 834 -453 198 -119 582 -373 720 -477 427 -322
660 -575 711 -770 22 -82 14 -124 -31 -177 -41 -49 -113 -84 -220 -109 -123
-29 -529 -27 -755 4 -786 107 -1783 397 -2890 840 -1764 706 -3299 1630 -3691
2220 -108 164 -118 290 -28 367 62 52 170 88 316 105 114 13 414 3 598 -20z
m535 -300 c253 -19 480 -58 845 -147 127 -30 232 -57 234 -59 2 -2 -27 -34
-64 -71 -295 -292 -339 -786 -96 -1083 60 -73 58 -75 -25 -30 -926 506 -1503
990 -1471 1232 17 128 222 184 577 158z m1658 -182 c132 -42 244 -143 312
-283 57 -114 74 -189 74 -320 -1 -597 -634 -956 -1015 -575 -74 74 -136 186
-166 300 -23 88 -22 261 1 355 45 174 150 337 277 431 l49 36 105 -31 c97 -29
107 -31 139 -17 42 18 70 67 62 108 l-6 30 53 -7 c28 -3 80 -15 115 -27z"/>
<path d="M6903 14605 c-117 -32 -204 -102 -251 -203 -23 -48 -27 -71 -27 -142
0 -73 4 -92 28 -137 70 -135 177 -200 357 -218 204 -21 1593 -214 1601 -223 3
-4 180 -902 393 -1997 214 -1094 440 -2253 503 -2575 369 -1891 363 -1863 391
-1913 35 -66 120 -141 190 -169 l57 -23 3568 -3 3567 -2 62 21 c115 38 201
117 239 218 29 78 23 187 -15 264 -45 93 -148 171 -258 197 -28 6 -1218 10
-3389 10 l-3347 0 -5 23 c-3 12 -29 141 -57 287 -28 146 -53 273 -56 283 -5
16 138 17 2903 17 1724 0 2947 4 3004 10 545 53 999 371 1193 838 47 111 56
149 155 652 123 621 388 1961 516 2609 58 294 105 536 105 538 0 1 -1977 3
-4393 3 l-4393 0 -52 268 c-29 147 -79 403 -112 569 -36 185 -67 317 -80 342
-43 85 -121 151 -218 185 -48 17 -1336 200 -1871 266 -191 23 -237 24 -308 5z
m375 -95 c743 -95 1755 -241 1798 -260 58 -25 124 -87 146 -137 10 -24 46
-181 79 -350 145 -745 170 -868 179 -873 6 -3 1974 -6 4375 -6 4255 1 4365 1
4365 -18 0 -10 -43 -233 -95 -495 -52 -262 -167 -843 -255 -1291 -369 -1872
-357 -1815 -431 -1962 -119 -235 -348 -456 -597 -574 -100 -47 -254 -97 -372
-120 -91 -18 -222 -19 -3107 -22 -1657 -1 -3013 -5 -3013 -8 0 -10 140 -727
146 -746 5 -17 181 -18 3402 -20 l3397 -3 46 -21 c188 -87 231 -308 85 -442
-24 -22 -68 -49 -100 -61 l-57 -21 -3557 2 -3557 3 -45 23 c-60 29 -119 87
-141 137 -19 43 -32 109 -474 2375 -366 1874 -568 2908 -700 3584 -58 297
-105 543 -105 547 0 3 -17 9 -37 12 -146 24 -1383 192 -1620 221 -88 11 -136
22 -170 40 -228 116 -193 435 55 502 68 18 98 17 360 -16z"/>
<path d="M10790 10670 l0 -1590 335 0 335 0 0 1590 0 1590 -335 0 -335 0 0
-1590z m580 0 l0 -1510 -245 0 -245 0 0 1510 0 1510 245 0 245 0 0 -1510z"/>
<path d="M11660 10670 l0 -1590 185 0 185 0 0 1590 0 1590 -185 0 -185 0 0
-1590z m280 0 l0 -1510 -100 0 -100 0 0 1510 0 1510 100 0 100 0 0 -1510z"/>
<path d="M12520 10670 l0 -1590 185 0 185 0 0 1590 0 1590 -185 0 -185 0 0
-1590z m280 0 l0 -1511 -97 3 -98 3 -3 1495 c-1 822 0 1501 3 1508 3 8 33 12
100 12 l95 0 0 -1510z"/>
<path d="M13100 10670 l0 -1590 185 0 185 0 0 1590 0 1590 -185 0 -185 0 0
-1590z m280 0 l0 -1510 -95 0 -95 0 0 1510 0 1510 95 0 95 0 0 -1510z"/>
<path d="M13677 12253 c-4 -3 -7 -719 -7 -1590 l0 -1583 325 0 325 0 0 1590 0
1590 -318 0 c-175 0 -322 -3 -325 -7z m553 -1583 l0 -1510 -235 0 -235 0 0
1510 0 1510 235 0 235 0 0 -1510z"/>
<path d="M14820 10670 l0 -1590 180 0 180 0 0 1590 0 1590 -180 0 -180 0 0
-1590z m270 0 l0 -1510 -95 0 -95 0 0 1510 0 1510 95 0 95 0 0 -1510z"/>
<path d="M15395 10670 l0 -1590 328 0 327 0 0 1590 0 1590 -327 0 -328 0 0
-1590z m565 0 l0 -1510 -240 0 -240 0 0 1510 0 1510 240 0 240 0 0 -1510z"/>
<path d="M16250 10670 l0 -1590 185 0 185 0 0 1590 0 1590 -185 0 -185 0 0
-1590z m280 0 l0 -1510 -95 0 -95 0 0 1510 0 1510 95 0 95 0 0 -1510z"/>
<path d="M11325 6915 c-231 -50 -441 -226 -542 -453 -63 -144 -81 -347 -43
-496 48 -190 177 -354 340 -433 267 -131 568 -79 794 136 294 281 335 742 93
1028 -157 185 -406 270 -642 218z m280 -80 c188 -49 327 -177 396 -365 92
-251 20 -544 -180 -740 -198 -192 -464 -242 -697 -130 -64 31 -95 54 -151 114
-338 355 -149 977 340 1117 78 22 214 24 292 4z"/>
<path d="M15754 6915 c-141 -31 -262 -96 -368 -200 -201 -196 -287 -489 -221
-751 57 -225 238 -413 460 -480 92 -28 268 -26 365 5 327 101 542 380 557 721
6 148 -11 234 -73 360 -132 267 -428 409 -720 345z m280 -80 c187 -49 339
-196 403 -389 22 -68 26 -99 26 -196 0 -137 -16 -208 -76 -330 -33 -69 -58
-102 -132 -176 -93 -94 -167 -140 -285 -180 -85 -29 -253 -26 -347 5 -186 60
-331 225 -379 427 -12 50 -15 99 -11 179 8 196 71 339 213 481 127 128 275
192 444 193 47 1 112 -6 144 -14z"/>
<path d="M4593 4065 l-51 -155 114 0 115 0 93 143 c51 78 96 148 100 155 6 9
-28 12 -156 12 l-163 0 -52 -155z"/>
<path d="M11420 4188 c-23 -62 -90 -263 -90 -270 0 -5 52 -8 115 -8 l115 0
100 150 c55 82 100 152 100 155 0 3 -74 5 -164 5 l-164 0 -12 -32z"/>
<path d="M20722 4065 l101 -155 114 0 c62 0 113 3 113 8 0 4 -22 73 -48 152
l-49 145 -166 3 -166 2 101 -155z"/>
<path d="M5941 3834 c-243 -52 -423 -242 -499 -523 -22 -85 -25 -116 -25 -266
-1 -200 15 -273 88 -422 61 -124 143 -207 258 -262 79 -38 203 -71 267 -71
l30 0 0 60 c0 46 -3 60 -15 60 -25 0 -83 59 -100 103 -14 37 -15 106 -13 577
3 515 4 536 23 570 12 21 37 43 62 55 l42 20 1 58 c0 56 -1 57 -27 56 -16 0
-57 -7 -92 -15z"/>
<path d="M6150 3793 l0 -58 48 -19 c105 -44 215 -199 257 -366 25 -99 68 -132
123 -94 22 15 22 17 22 289 l0 275 -25 16 c-34 23 -69 11 -94 -31 -13 -23 -28
-35 -42 -35 -12 0 -78 18 -145 40 -68 22 -128 40 -134 40 -6 0 -10 -24 -10
-57z"/>
<path d="M11302 3831 c-336 -83 -530 -394 -509 -815 8 -151 34 -254 93 -375
63 -129 155 -222 275 -279 70 -34 198 -72 238 -72 7 0 11 24 11 58 0 54 -2 59
-31 76 -17 10 -39 32 -50 50 -18 30 -19 56 -19 596 0 540 1 566 19 596 11 18
33 40 50 50 29 17 31 22 31 76 0 67 4 66 -108 39z"/>
<path d="M11510 3791 c0 -49 3 -61 18 -65 10 -4 32 -20 48 -37 l29 -30 3 -575
c3 -637 5 -612 -63 -657 -33 -21 -35 -25 -35 -79 0 -34 4 -58 11 -58 40 0 168
38 238 72 162 77 286 241 343 453 31 117 31 394 0 510 -58 213 -181 376 -343
453 -70 34 -198 72 -238 72 -7 0 -11 -24 -11 -59z"/>
<path d="M23680 3843 c-237 -40 -442 -254 -510 -536 -118 -480 137 -960 538
-1013 l52 -7 0 53 c0 49 -3 56 -39 89 -24 22 -43 52 -50 76 -7 27 -11 212 -11
565 0 353 4 538 11 565 7 24 26 54 50 76 36 33 39 40 39 87 0 50 -1 52 -27 51
-16 -1 -39 -4 -53 -6z"/>
<path d="M23850 3790 c0 -57 1 -60 25 -60 45 0 132 -40 181 -83 68 -59 120
-146 154 -255 16 -52 35 -100 41 -108 15 -19 74 -18 93 2 14 13 16 53 16 279
0 251 -1 265 -19 275 -33 17 -56 11 -91 -25 -39 -41 -50 -42 -139 -15 -56 16
-225 50 -252 50 -5 0 -9 -27 -9 -60z"/>
<path d="M2566 3801 c-10 -11 -16 -31 -14 -48 2 -22 12 -32 46 -49 24 -11 48
-27 53 -35 12 -18 12 -1180 0 -1198 -5 -8 -29 -24 -53 -35 -36 -17 -44 -26
-46 -53 -6 -60 8 -63 320 -63 l278 0 0 750 0 750 -283 0 c-267 0 -285 -1 -301
-19z"/>
<path d="M3240 3760 c0 -56 2 -60 23 -60 38 0 87 -38 107 -83 17 -35 20 -66
20 -195 0 -111 -4 -162 -14 -187 -17 -39 -68 -75 -108 -75 -27 0 -28 -1 -28
-60 l0 -59 39 -11 c48 -13 88 -52 101 -99 16 -58 13 -375 -4 -416 -17 -39 -68
-75 -108 -75 -28 0 -28 -1 -28 -61 l0 -62 153 6 c164 5 236 21 320 70 127 75
195 228 169 381 -26 160 -127 258 -316 306 l-71 18 45 11 c77 20 84 23 134 48
151 76 222 226 182 382 -48 189 -217 280 -518 281 l-98 0 0 -60z"/>
<path d="M4479 3778 c-6 -24 -12 -54 -11 -68 0 -14 43 -214 96 -444 53 -231
94 -426 92 -433 -5 -11 -31 -13 -116 -12 -61 1 -113 0 -116 -3 -3 -3 -11 -29
-19 -57 l-13 -51 147 0 146 0 23 -87 c23 -90 28 -140 14 -158 -4 -6 -22 -21
-39 -34 -24 -16 -33 -30 -33 -51 0 -58 12 -60 350 -60 332 0 350 3 350 55 0
27 -9 37 -58 66 -18 10 -36 27 -39 36 -4 10 -77 315 -163 678 l-157 660 -221
3 -221 2 -12 -42z"/>
<path d="M6812 3804 c-17 -12 -22 -24 -20 -47 2 -27 10 -36 46 -53 24 -11 48
-27 53 -35 11 -17 12 -1179 1 -1197 -5 -7 -28 -22 -53 -35 -36 -18 -45 -28
-47 -54 -6 -61 4 -63 353 -63 348 0 359 2 353 63 -2 25 -11 36 -43 54 -22 12
-46 27 -52 33 -10 8 -13 141 -13 598 0 323 4 593 8 600 5 7 28 22 53 35 36 18
45 28 47 54 6 61 -4 63 -353 63 -268 0 -314 -2 -333 -16z"/>
<path d="M7572 3804 c-17 -12 -22 -24 -20 -47 2 -26 11 -36 47 -54 25 -13 48
-28 53 -35 4 -7 8 -129 8 -270 l0 -258 -90 0 -90 0 0 -54 c0 -35 5 -56 13 -59
7 -3 48 -4 90 -3 l77 1 0 -272 c0 -297 4 -279 -65 -316 -32 -18 -41 -29 -43
-54 -6 -61 5 -63 353 -63 349 0 359 2 353 63 -2 27 -10 36 -46 53 -24 11 -48
27 -53 35 -11 17 -12 1179 -1 1197 5 7 28 22 53 35 36 18 45 28 47 54 6 61 -4
63 -353 63 -268 0 -314 -2 -333 -16z"/>
<path d="M9192 3804 c-17 -12 -22 -24 -20 -47 2 -26 11 -36 47 -54 25 -13 48
-28 53 -35 10 -17 10 -1179 0 -1196 -5 -7 -28 -22 -53 -35 -36 -18 -45 -28
-47 -54 -6 -61 4 -63 353 -63 349 0 359 2 353 63 -2 26 -11 36 -47 54 -25 13
-48 28 -53 35 -10 17 -10 1179 0 1196 5 7 28 22 53 35 36 18 45 28 47 54 6 61
-4 63 -353 63 -268 0 -314 -2 -333 -16z"/>
<path d="M9952 3804 c-38 -26 -27 -73 23 -101 69 -37 65 -20 65 -303 l0 -260
-90 0 -90 0 0 -55 c0 -30 3 -56 8 -56 4 -1 43 -2 87 -3 l80 -2 3 -271 c3 -298
6 -278 -63 -316 -32 -18 -41 -29 -43 -54 -6 -61 5 -63 353 -63 349 0 359 2
353 63 -2 26 -11 36 -47 54 -25 13 -48 28 -53 35 -11 18 -10 1180 1 1197 5 8
29 24 53 35 36 17 44 26 46 53 6 61 -4 63 -353 63 -268 0 -314 -2 -333 -16z"/>
<path d="M12669 3778 c-6 -24 -12 -54 -11 -68 0 -14 43 -214 96 -445 53 -230
95 -424 92 -430 -2 -8 -44 -12 -116 -13 -62 0 -114 -3 -117 -5 -2 -3 -10 -28
-18 -56 l-13 -51 147 0 146 0 23 -87 c23 -90 28 -140 14 -158 -4 -6 -22 -21
-39 -34 -24 -16 -33 -30 -33 -51 0 -58 12 -60 350 -60 332 0 350 3 350 55 0
27 -9 37 -58 66 -18 10 -36 27 -39 37 -4 9 -77 314 -163 677 l-156 660 -222 3
-221 2 -12 -42z"/>
<path d="M14280 3584 c0 -147 4 -243 11 -255 14 -27 48 -38 81 -27 30 11 32
16 63 157 23 101 47 153 95 204 37 41 40 49 40 101 l0 56 -145 0 -145 0 0
-236z"/>
<path d="M14660 3153 c0 -368 -4 -674 -8 -681 -5 -7 -28 -22 -53 -35 -36 -18
-45 -28 -47 -54 -6 -61 4 -63 353 -63 265 0 314 2 333 16 42 29 23 91 -35 108
-56 17 -53 -18 -53 707 l0 669 -245 0 -245 0 0 -667z"/>
<path d="M15240 3760 c0 -47 4 -61 18 -69 48 -26 104 -143 128 -271 19 -95 34
-120 78 -120 64 0 66 8 66 278 l0 242 -145 0 -145 0 0 -60z"/>
<path d="M15652 3804 c-17 -12 -22 -24 -20 -47 2 -26 11 -36 47 -54 25 -13 48
-28 53 -35 11 -18 10 -1180 -1 -1197 -5 -8 -29 -24 -53 -35 -36 -17 -44 -26
-46 -53 -6 -61 4 -63 353 -63 349 0 359 2 353 63 -2 27 -10 36 -46 53 -24 11
-48 27 -53 35 -11 17 -12 1179 -1 1197 5 7 28 22 53 35 36 18 45 28 47 54 6
61 -4 63 -353 63 -268 0 -314 -2 -333 -16z"/>
<path d="M16525 3796 c-14 -14 -25 -31 -25 -38 0 -24 30 -56 58 -62 15 -4 39
-17 54 -29 14 -12 126 -195 248 -407 122 -212 294 -510 382 -662 l161 -278
148 0 149 0 0 243 0 242 -289 505 -288 505 -287 3 -287 2 -24 -24z"/>
<path d="M17453 3808 c-49 -24 -40 -79 16 -108 49 -24 88 -70 101 -118 5 -21
11 -123 12 -227 l3 -190 57 -99 57 -100 3 300 c3 281 4 302 25 346 16 35 35
55 77 82 47 30 56 40 56 65 0 55 -23 61 -215 60 -99 0 -179 -5 -192 -11z"/>
<path d="M18692 3804 c-17 -12 -22 -24 -20 -47 2 -27 10 -36 46 -53 24 -11 48
-27 53 -35 12 -18 12 -1180 0 -1198 -5 -8 -29 -24 -53 -35 -36 -17 -44 -26
-46 -53 -6 -60 8 -63 320 -63 l278 0 0 750 0 750 -278 0 c-238 0 -281 -2 -300
-16z"/>
<path d="M19360 3760 c0 -53 2 -60 20 -60 34 0 87 -56 99 -104 7 -30 11 -204
11 -526 0 -322 -4 -496 -11 -526 -12 -48 -65 -104 -99 -104 -18 0 -20 -7 -20
-61 l0 -62 60 6 c137 15 284 84 382 180 149 147 216 333 205 572 -12 257 -81
440 -216 576 -100 99 -260 168 -393 169 l-38 0 0 -60z"/>
<path d="M20182 3804 c-17 -12 -22 -24 -20 -47 2 -27 10 -36 46 -53 24 -11 48
-27 53 -35 5 -8 9 -249 9 -544 0 -350 4 -544 11 -570 23 -84 181 -201 324
-239 33 -9 111 -19 173 -23 l112 -6 0 59 c0 58 -1 60 -36 79 -20 11 -49 37
-63 59 l-26 40 -3 563 c-1 310 1 570 6 578 4 8 28 25 52 38 37 18 46 27 48 54
6 61 -4 63 -353 63 -268 0 -314 -2 -333 -16z"/>
<path d="M21120 3807 c-28 -14 -39 -59 -18 -76 7 -6 29 -22 48 -34 47 -30 77
-77 90 -142 7 -35 10 -191 8 -472 -3 -374 -6 -423 -22 -465 -32 -86 -111 -156
-219 -197 -27 -10 -28 -13 -25 -68 3 -58 3 -58 33 -54 101 11 232 107 288 209
54 99 57 132 58 572 0 223 5 427 10 454 15 83 45 132 100 165 41 26 49 36 49
60 0 54 -24 61 -210 61 -112 0 -173 -4 -190 -13z"/>
<path d="M21685 3796 c-43 -43 -30 -70 54 -113 l54 -28 384 -667 385 -668 149
0 149 0 0 243 0 243 -289 504 -288 505 -287 3 -287 2 -24 -24z"/>
<path d="M22613 3810 c-49 -20 -40 -81 16 -110 49 -24 88 -71 100 -118 5 -20
11 -122 13 -227 l4 -190 54 -97 55 -97 5 297 c5 287 6 299 29 345 17 35 38 57
77 82 45 29 54 39 54 64 0 55 -23 61 -215 60 -93 0 -180 -4 -192 -9z"/>
<path d="M4400 3498 c-53 -202 -243 -889 -251 -910 -28 -69 -67 -114 -123
-143 -67 -35 -81 -65 -47 -98 20 -21 33 -22 193 -25 94 -2 182 -1 195 3 13 3
28 16 34 29 15 32 -2 61 -50 86 -50 25 -81 65 -81 104 0 17 45 197 101 399
l101 368 -27 115 c-15 62 -28 114 -30 114 -2 0 -9 -19 -15 -42z"/>
<path d="M12600 3536 c0 -10 -252 -925 -261 -948 -28 -69 -67 -114 -123 -143
-67 -35 -81 -65 -47 -98 20 -21 33 -22 193 -25 94 -2 182 -1 195 3 31 7 49 45
34 73 -6 11 -33 33 -60 47 -51 28 -71 57 -71 103 0 14 45 192 101 395 l101
368 -27 114 c-15 63 -28 115 -31 115 -2 0 -4 -2 -4 -4z"/>
<path d="M16660 3038 c0 -253 -4 -426 -11 -457 -13 -61 -43 -108 -89 -138 -55
-36 -61 -43 -58 -71 5 -45 36 -52 221 -52 164 0 168 1 192 24 33 33 23 61 -34
96 -95 59 -100 83 -101 472 l-2 323 -45 85 c-26 47 -52 94 -60 105 -11 16 -13
-44 -13 -387z"/>
<path d="M21820 3038 c0 -253 -4 -426 -11 -457 -13 -61 -43 -108 -89 -138 -55
-36 -61 -43 -58 -71 5 -44 36 -52 218 -52 186 0 210 7 210 61 0 24 -8 34 -49
60 -36 21 -56 43 -73 77 -25 52 -26 55 -30 497 l-3 230 -44 80 c-24 44 -50 89
-58 100 -11 16 -13 -45 -13 -387z"/>
<path d="M23832 3064 c-45 -31 -16 -104 43 -104 11 0 31 -7 43 -16 22 -15 22
-19 22 -232 0 -238 -3 -253 -57 -287 -30 -19 -32 -24 -33 -79 l0 -59 62 7
c132 15 285 79 405 169 l42 32 1 214 0 213 35 32 c28 26 35 40 35 69 0 26 -6
39 -19 47 -12 6 -122 10 -288 10 -227 0 -272 -2 -291 -16z"/>
<path d="M6520 2747 c-15 -8 -32 -33 -46 -69 -43 -112 -117 -188 -235 -243
-30 -14 -62 -25 -71 -25 -15 0 -18 -10 -18 -60 0 -57 1 -60 24 -60 45 0 151
39 206 77 122 82 220 219 220 308 0 63 -35 94 -80 72z"/>
</g>
</svg>
